# xmcd
#
# Track frame offsets:
#	182
#	16862
#	33387
#	47642
#	59715
#	72917
#	86060
#	101822
#	116797
#	131792
#	143627
#	157780
#
# Disc length: 2295 seconds
#
# Revision: 0
# Processed by: cddbd v1.5.2PL0 Copyright (c) Steve Scherf et al.
# Submitted via: audiograbber 1.83.01
#
DISCID=a608f50c
DTITLE=Τα Λαϊκά - Μεγάλε Φωνές Του Λαϊκού Πενταγράμμου - cd 2
DYEAR=1995
DGENRE=
TTITLE0=Πάνος Γαβαλάς - Φύγε Κι ’σε Με 
TTITLE1=Μαίρη Λίντα  - Περασμένες Μου Αγάπες 
TTITLE2=Γρηγόρης Μπιθικώτσης  - Όμορφη Πειραιώτισσα 
TTITLE3=Γιώτα Λυδια  - Συ Μου Χάραξες Πορεία 
TTITLE4=Μιχάλης Μενιδιάτης  - Ξημέρωσε Καλή Μου 
TTITLE5=Πόλυ Πάνου  - Τα Λιμάνια 
TTITLE6=Λευτέρης Μυτιληναίος  - Αμφιβολίες 
TTITLE7=Καίτη Γκρέυ  - ’ναψε Το Τσιγάρο 
TTITLE8=Μαίρη Λίντα  - Αφού Το Θες 
TTITLE9=Βαγγέλης Περπινιάδης  - Γιατί Γλυκειά Μου Κλαις 
TTITLE10=Γιώτα Λυδια  - Νύχτωσε Χωρίς Φεγγάρι 
TTITLE11=Στέλιος Καζαντζίδης  - Θεσσαλονίκη Μου
EXTD=
EXTT0=
EXTT1=
EXTT2=
EXTT3=
EXTT4=
EXTT5=
EXTT6=
EXTT7=
EXTT8=
EXTT9=
EXTT10=
EXTT11=
PLAYORDER=
